fd_7_states
version=1
nRows=39
nColumns=17
inDegrees=yes

# SIMM Motion File Header:
name fd_7_states
datacolumns 17
datarows 39
otherdata 1
range 0.889638 0.926501
endheader
time	/jointset/r_shoulder/r_shoulder_elev/value	/jointset/r_shoulder/r_shoulder_elev/speed	/jointset/r_elbow/r_elbow_flex/value	/jointset/r_elbow/r_elbow_flex/speed	/forceset/TRIlong/activation	/forceset/TRIlong/fiber_length	/forceset/TRIlat/activation	/forceset/TRIlat/fiber_length	/forceset/TRImed/activation	/forceset/TRImed/fiber_length	/forceset/BIClong/activation	/forceset/BIClong/fiber_length	/forceset/BICshort/activation	/forceset/BICshort/fiber_length	/forceset/BRA/activation	/forceset/BRA/fiber_length
      0.889638	      0.029854	      0.112241	     69.230461	    215.856437	      0.020000	      0.162798	      0.205784	      0.095874	      0.200853	      0.090965	      0.782802	      0.112362	      0.122087	      0.113904	      0.020000	      0.076366
      0.890029	      0.029898	      0.109186	     69.315029	    216.236850	      0.020000	      0.162826	      0.205899	      0.095903	      0.200983	      0.090993	      0.783568	      0.112296	      0.121492	      0.113845	      0.020000	      0.076338
      0.890116	      0.029907	      0.108504	     69.333886	    216.321670	      0.020000	      0.162832	      0.205989	      0.095909	      0.201063	      0.090999	      0.783776	      0.112282	      0.121888	      0.113831	      0.020000	      0.076332
      0.890256	      0.029922	      0.107426	     69.364044	    216.457271	      0.020000	      0.162842	      0.206143	      0.095919	      0.201197	      0.091009	      0.784114	      0.112258	      0.122652	      0.113810	      0.020000	      0.076322
      0.890953	      0.029995	      0.102655	     69.515116	    217.134358	      0.020000	      0.162892	      0.206873	      0.095969	      0.201835	      0.091059	      0.785760	      0.112142	      0.126230	      0.113701	      0.020000	      0.076272
      0.893094	      0.030206	      0.097047	     69.982280	    219.197373	      0.020000	      0.163046	      0.208755	      0.096121	      0.203478	      0.091212	      0.790399	      0.111780	      0.135099	      0.113343	      0.020000	      0.076118
      0.894959	      0.030387	      0.096927	     70.392808	    221.001625	      0.020000	      0.163176	      0.210033	      0.096255	      0.204590	      0.091346	      0.793974	      0.111462	      0.140810	      0.113014	      0.020000	      0.075982
      0.896163	      0.030502	      0.093540	     70.659543	    222.177854	      0.020000	      0.163273	      0.210713	      0.096342	      0.205182	      0.091433	      0.796074	      0.111255	      0.143748	      0.112797	      0.020000	      0.075893
      0.897367	      0.030612	      0.088058	     70.927707	    223.378767	      0.020000	      0.163353	      0.211300	      0.096430	      0.205691	      0.091521	      0.798027	      0.111047	      0.146216	      0.112578	      0.020000	      0.075804
      0.898570	      0.030711	      0.077662	     71.197328	    224.594801	      0.020000	      0.163444	      0.211806	      0.096518	      0.206129	      0.091610	      0.799844	      0.110838	      0.148295	      0.112358	      0.020000	      0.075714
      0.899712	      0.030796	      0.071996	     71.454431	    225.742195	      0.020000	      0.163526	      0.212221	      0.096603	      0.206489	      0.091694	      0.801449	      0.110639	      0.149964	      0.112148	      0.020000	      0.075627
      0.900129	      0.030826	      0.071406	     71.548546	    226.156018	      0.020000	      0.163557	      0.212328	      0.096634	      0.206577	      0.091725	      0.802095	      0.110566	      0.150423	      0.112071	      0.020000	      0.075595
      0.900545	      0.030856	      0.071588	     71.642832	    226.567900	      0.020000	      0.163587	      0.212246	      0.096665	      0.206469	      0.091756	      0.803392	      0.110493	      0.150397	      0.111995	      0.020000	      0.075564
      0.900962	      0.030886	      0.072154	     71.737290	    226.979070	      0.020000	      0.163618	      0.212159	      0.096696	      0.206354	      0.091787	      0.804703	      0.110419	      0.150361	      0.111918	      0.020000	      0.075532
      0.903044	      0.031038	      0.073088	     72.212157	    229.051122	      0.020000	      0.163773	      0.211732	      0.096855	      0.205792	      0.091946	      0.810783	      0.110048	      0.150189	      0.111540	      0.020000	      0.075371
      0.905127	      0.031185	      0.067068	     72.691384	    231.169185	      0.020000	      0.163925	      0.211323	      0.097016	      0.205254	      0.092107	      0.816141	      0.109671	      0.150022	      0.111164	      0.020000	      0.075208
      0.906229	      0.031256	      0.060400	     72.946631	    232.304073	      0.020000	      0.164016	      0.211113	      0.097101	      0.204979	      0.092193	      0.818715	      0.109470	      0.149937	      0.110965	      0.020000	      0.075121
      0.907330	      0.031319	      0.053855	     73.203134	    233.452564	      0.020000	      0.164094	      0.210909	      0.097188	      0.204710	      0.092279	      0.821125	      0.109268	      0.149853	      0.110766	      0.020000	      0.075033
      0.908706	      0.031386	      0.044041	     73.525286	    234.891536	      0.020000	      0.164206	      0.210660	      0.097296	      0.204382	      0.092387	      0.823920	      0.109013	      0.149751	      0.110517	      0.020000	      0.074922
      0.909805	      0.031431	      0.038171	     73.784133	    236.049593	      0.020000	      0.164283	      0.210466	      0.097383	      0.204127	      0.092474	      0.825996	      0.108809	      0.149671	      0.110318	      0.020000	      0.074833
      0.910146	      0.031444	      0.036204	     73.864770	    236.407942	      0.020000	      0.164311	      0.210405	      0.097410	      0.204050	      0.092501	      0.826671	      0.108745	      0.149778	      0.110256	      0.020000	      0.074805
      0.910488	      0.031456	      0.034461	     73.945530	    236.766493	      0.020000	      0.164337	      0.210336	      0.097437	      0.203982	      0.092529	      0.827647	      0.108681	      0.150603	      0.110194	      0.020000	      0.074777
      0.910933	      0.031471	      0.032385	     74.051115	    237.234753	      0.020000	      0.164372	      0.210246	      0.097473	      0.203894	      0.092564	      0.828901	      0.108597	      0.151643	      0.110111	      0.020000	      0.074741
      0.913161	      0.031532	      0.022187	     74.582180	    239.588833	      0.020000	      0.164548	      0.209808	      0.097652	      0.203465	      0.092743	      0.834692	      0.108176	      0.155966	      0.109692	      0.020000	      0.074556
      0.914149	      0.031552	      0.017574	     74.819562	    240.645716	      0.020000	      0.164622	      0.209620	      0.097732	      0.203281	      0.092822	      0.837028	      0.107987	      0.157492	      0.109502	      0.020000	      0.074473
      0.915567	      0.031571	      0.009067	     75.161892	    242.170567	      0.020000	      0.164741	      0.209358	      0.097847	      0.203023	      0.092938	      0.840149	      0.107714	      0.159347	      0.109227	      0.020000	      0.074354
      0.916618	      0.031578	      0.003874	     75.416802	    243.312439	      0.020000	      0.164816	      0.209168	      0.097933	      0.202837	      0.093023	      0.842298	      0.107510	      0.160505	      0.109022	      0.020000	      0.074264
      0.917668	      0.031579	     -0.002446	     75.672913	    244.454521	      0.020000	      0.164905	      0.208982	      0.098020	      0.202655	      0.093110	      0.844320	      0.107306	      0.161507	      0.108815	      0.020000	      0.074174
      0.919009	      0.031571	     -0.007373	     76.001813	    245.922828	      0.020000	      0.165005	      0.208751	      0.098131	      0.202427	      0.093220	      0.846730	      0.107044	      0.162596	      0.108551	      0.020000	      0.074058
      0.919645	      0.031566	     -0.009898	     76.158405	    246.615208	      0.020000	      0.165061	      0.208644	      0.098184	      0.202322	      0.093273	      0.847808	      0.106919	      0.163046	      0.108425	      0.020000	      0.074003
      0.919936	      0.031563	     -0.010637	     76.230114	    246.931910	      0.020000	      0.165084	      0.208595	      0.098208	      0.202274	      0.093297	      0.848287	      0.106861	      0.163239	      0.108367	      0.020000	      0.073978
      0.920036	      0.031562	     -0.010852	     76.254862	    247.041058	      0.020000	      0.165092	      0.208581	      0.098216	      0.202260	      0.093306	      0.848453	      0.106842	      0.163429	      0.108347	      0.020000	      0.073969
      0.920136	      0.031560	     -0.011047	     76.279620	    247.150176	      0.020000	      0.165100	      0.208595	      0.098225	      0.202261	      0.093314	      0.848633	      0.106822	      0.164444	      0.108327	      0.020000	      0.073960
      0.920236	      0.031559	     -0.011223	     76.304390	    247.259264	      0.020000	      0.165108	      0.208614	      0.098233	      0.202264	      0.093322	      0.848813	      0.106802	      0.165486	      0.108307	      0.020000	      0.073951
      0.920737	      0.031554	     -0.011825	     76.428401	    247.804296	      0.020000	      0.165149	      0.208700	      0.098275	      0.202276	      0.093364	      0.849695	      0.106703	      0.170462	      0.108205	      0.020000	      0.073907
      0.923242	      0.031524	     -0.011058	     77.052553	    250.532594	      0.020000	      0.165353	      0.209062	      0.098484	      0.202325	      0.093573	      0.853743	      0.106205	      0.190485	      0.107658	      0.020000	      0.073685
      0.924574	      0.031508	     -0.012714	     77.387337	    251.999079	      0.020000	      0.165469	      0.209214	      0.098596	      0.202345	      0.093686	      0.855671	      0.105937	      0.198569	      0.107355	      0.020000	      0.073566
      0.925538	      0.031496	     -0.013722	     77.630574	    253.072415	      0.020000	      0.165541	      0.209309	      0.098677	      0.202358	      0.093767	      0.856975	      0.105743	      0.203563	      0.107133	      0.020000	      0.073478
      0.926501	      0.031481	     -0.017092	     77.874847	    254.148727	      0.020000	      0.165626	      0.209393	      0.098759	      0.202369	      0.093849	      0.858210	      0.105548	      0.207956	      0.106910	      0.020000	      0.073391
